<?xml version="1.0" encoding="UTF-8"?>
<!DOCTYPE svg PUBLIC "-//W3C//DTD SVG 1.1//EN" "http://www.w3.org/Graphics/SVG/1.1/DTD/svg11.dtd">
<svg version="1.2" width="50mm" height="50mm" viewBox="0 0 5000 5000" preserveAspectRatio="xMidYMid" fill-rule="evenodd" stroke-width="28.222" stroke-linejoin="round" xmlns="http://www.w3.org/2000/svg" xmlns:ooo="http://xml.openoffice.org/svg/export" xmlns:xlink="http://www.w3.org/1999/xlink" xmlns:presentation="http://sun.com/xmlns/staroffice/presentation" xmlns:smil="http://www.w3.org/2001/SMIL20/" xmlns:anim="urn:oasis:names:tc:opendocument:xmlns:animation:1.0" xml:space="preserve">
 <defs class="ClipPathGroup">
  <clipPath id="presentation_clip_path" clipPathUnits="userSpaceOnUse">
   <rect x="0" y="0" width="5000" height="5000"/>
  </clipPath>
 </defs>
 <defs class="TextShapeIndex">
  <g ooo:slide="id1" ooo:id-list="id3 id4 id5 id6 id7 id8 id9 id10 id11"/>
 </defs>
 <defs class="EmbeddedBulletChars">
  <g id="bullet-char-template(57356)" transform="scale(0.00048828125,-0.00048828125)">
   <path d="M 580,1141 L 1163,571 580,0 -4,571 580,1141 Z"/>
  </g>
  <g id="bullet-char-template(57354)" transform="scale(0.00048828125,-0.00048828125)">
   <path d="M 8,1128 L 1137,1128 1137,0 8,0 8,1128 Z"/>
  </g>
  <g id="bullet-char-template(10146)" transform="scale(0.00048828125,-0.00048828125)">
   <path d="M 174,0 L 602,739 174,1481 1456,739 174,0 Z M 1358,739 L 309,1346 659,739 1358,739 Z"/>
  </g>
  <g id="bullet-char-template(10132)" transform="scale(0.00048828125,-0.00048828125)">
   <path d="M 2015,739 L 1276,0 717,0 1260,543 174,543 174,936 1260,936 717,1481 1274,1481 2015,739 Z"/>
  </g>
  <g id="bullet-char-template(10007)" transform="scale(0.00048828125,-0.00048828125)">
   <path d="M 0,-2 C -7,14 -16,27 -25,37 L 356,567 C 262,823 215,952 215,954 215,979 228,992 255,992 264,992 276,990 289,987 310,991 331,999 354,1012 L 381,999 492,748 772,1049 836,1024 860,1049 C 881,1039 901,1025 922,1006 886,937 835,863 770,784 769,783 710,716 594,584 L 774,223 C 774,196 753,168 711,139 L 727,119 C 717,90 699,76 672,76 641,76 570,178 457,381 L 164,-76 C 142,-110 111,-127 72,-127 30,-127 9,-110 8,-76 1,-67 -2,-52 -2,-32 -2,-23 -1,-13 0,-2 Z"/>
  </g>
  <g id="bullet-char-template(10004)" transform="scale(0.00048828125,-0.00048828125)">
   <path d="M 285,-33 C 182,-33 111,30 74,156 52,228 41,333 41,471 41,549 55,616 82,672 116,743 169,778 240,778 293,778 328,747 346,684 L 369,508 C 377,444 397,411 428,410 L 1163,1116 C 1174,1127 1196,1133 1229,1133 1271,1133 1292,1118 1292,1087 L 1292,965 C 1292,929 1282,901 1262,881 L 442,47 C 390,-6 338,-33 285,-33 Z"/>
  </g>
  <g id="bullet-char-template(9679)" transform="scale(0.00048828125,-0.00048828125)">
   <path d="M 813,0 C 632,0 489,54 383,161 276,268 223,411 223,592 223,773 276,916 383,1023 489,1130 632,1184 813,1184 992,1184 1136,1130 1245,1023 1353,916 1407,772 1407,592 1407,412 1353,268 1245,161 1136,54 992,0 813,0 Z"/>
  </g>
  <g id="bullet-char-template(8226)" transform="scale(0.00048828125,-0.00048828125)">
   <path d="M 346,457 C 273,457 209,483 155,535 101,586 74,649 74,723 74,796 101,859 155,911 209,963 273,989 346,989 419,989 480,963 531,910 582,859 608,796 608,723 608,648 583,586 532,535 482,483 420,457 346,457 Z"/>
  </g>
  <g id="bullet-char-template(8211)" transform="scale(0.00048828125,-0.00048828125)">
   <path d="M -4,459 L 1135,459 1135,606 -4,606 -4,459 Z"/>
  </g>
 </defs>
 <defs class="TextEmbeddedBitmaps"/>
 <g>
  <g id="id2" class="Master_Slide">
   <g id="bg-id2" class="Background"/>
   <g id="bo-id2" class="BackgroundObjects"/>
  </g>
 </g>
 <g class="SlideGroup">
  <g>
   <g id="id1" class="Slide" clip-path="url(#presentation_clip_path)">
    <g class="Page">
     <g class="com.sun.star.drawing.CustomShape">
      <g id="id3">
       <rect class="BoundingBox" stroke="none" fill="none" x="733" y="2249" width="3535" height="2211"/>
       <path fill="rgb(51,0,0)" stroke="none" d="M 2500,4458 L 734,4458 734,2250 4266,2250 4266,4458 2500,4458 Z"/>
       <path fill="none" stroke="rgb(204,204,204)" d="M 2500,4458 L 734,4458 734,2250 4266,2250 4266,4458 2500,4458 Z"/>
      </g>
     </g>
     <g class="com.sun.star.drawing.PolyPolygonShape">
      <g id="id4">
       <rect class="BoundingBox" stroke="none" fill="none" x="291" y="2249" width="4419" height="2653"/>
       <path fill="rgb(102,25,0)" stroke="none" d="M 292,2250 L 292,4900 4708,4900 4708,2250 4267,2250 4267,4458 734,4458 734,2250 292,2250 Z"/>
       <path fill="none" stroke="rgb(0,0,0)" d="M 292,2250 L 292,4900 4708,4900 4708,2250 4267,2250 4267,4458 734,4458 734,2250 292,2250 Z"/>
      </g>
     </g>
     <g class="com.sun.star.drawing.CustomShape">
      <g id="id5">
       <rect class="BoundingBox" stroke="none" fill="none" x="953" y="3795" width="3095" height="445"/>
       <path fill="rgb(114,159,207)" stroke="none" d="M 2500,4238 L 954,4238 954,3796 4046,3796 4046,4238 2500,4238 Z"/>
       <path fill="none" stroke="rgb(52,101,164)" d="M 2500,4238 L 954,4238 954,3796 4046,3796 4046,4238 2500,4238 Z"/>
      </g>
     </g>
     <g class="com.sun.star.drawing.CustomShape">
      <g id="id6">
       <rect class="BoundingBox" stroke="none" fill="none" x="953" y="3795" width="3095" height="445"/>
       <g>
        <defs>
         <linearGradient id="gradient1" x1="2500" y1="3796" x2="2500" y2="4238" gradientUnits="userSpaceOnUse">
          <stop offset="0" style="stop-color:rgb(255,255,255)"/>
          <stop offset="1" style="stop-color:rgb(178,178,178)"/>
         </linearGradient>
        </defs>
        <path style="fill:url(#gradient1)" d="M 2500,4238 L 954,4238 954,3796 4046,3796 4046,4238 2500,4238 Z"/>
       </g>
       <path fill="none" stroke="rgb(178,178,178)" d="M 2500,4238 L 954,4238 954,3796 4046,3796 4046,4238 2500,4238 Z"/>
      </g>
     </g>
     <g class="com.sun.star.drawing.CustomShape">
      <g id="id7">
       <rect class="BoundingBox" stroke="none" fill="none" x="953" y="2801" width="3095" height="887"/>
       <g>
        <defs>
         <linearGradient id="gradient2" x1="2500" y1="2802" x2="2500" y2="3686" gradientUnits="userSpaceOnUse">
          <stop offset="0" style="stop-color:rgb(255,255,255)"/>
          <stop offset="1" style="stop-color:rgb(178,178,178)"/>
         </linearGradient>
        </defs>
        <path style="fill:url(#gradient2)" d="M 2500,3686 L 954,3686 954,2802 4046,2802 4046,3686 2500,3686 Z"/>
       </g>
       <path fill="none" stroke="rgb(178,178,178)" d="M 2500,3686 L 954,3686 954,2802 4046,2802 4046,3686 2500,3686 Z"/>
      </g>
     </g>
     <g class="com.sun.star.drawing.CustomShape">
      <g id="id8">
       <rect class="BoundingBox" stroke="none" fill="none" x="953" y="151" width="3095" height="2542"/>
       <g>
        <defs>
         <linearGradient id="gradient3" x1="2500" y1="152" x2="2500" y2="2691" gradientUnits="userSpaceOnUse">
          <stop offset="0" style="stop-color:rgb(255,255,255)"/>
          <stop offset="1" style="stop-color:rgb(178,178,178)"/>
         </linearGradient>
        </defs>
        <path style="fill:url(#gradient3)" d="M 2500,2691 L 954,2691 954,152 4046,152 4046,2691 2500,2691 Z"/>
       </g>
       <path fill="none" stroke="rgb(178,178,178)" d="M 2500,2691 L 954,2691 954,152 4046,152 4046,2691 2500,2691 Z"/>
      </g>
     </g>
     <g class="com.sun.star.drawing.PolyPolygonShape">
      <g id="id9">
       <rect class="BoundingBox" stroke="none" fill="none" x="1492" y="1132" width="29" height="29"/>
       <path fill="rgb(238,238,238)" stroke="none" d="M 1506,1146 L 1506,1146 Z"/>
      </g>
     </g>
     <g class="com.sun.star.drawing.PolyPolygonShape">
      <g id="id10">
       <rect class="BoundingBox" stroke="none" fill="none" x="3480" y="1905" width="29" height="29"/>
       <path fill="rgb(238,238,238)" stroke="none" d="M 3494,1919 L 3494,1919 Z"/>
      </g>
     </g>
     <g class="com.sun.star.drawing.ClosedBezierShape">
      <g id="id11">
       <rect class="BoundingBox" stroke="none" fill="none" x="1986" y="504" width="1216" height="1775"/>
       <path fill="rgb(0,0,0)" stroke="none" d="M 3200,998 C 3200,1056 3193,1108 3177,1153 3162,1197 3142,1237 3116,1273 3090,1308 3061,1339 3029,1367 2996,1395 2963,1421 2929,1446 2895,1470 2862,1495 2829,1519 2796,1543 2767,1569 2741,1597 2715,1625 2694,1656 2678,1691 2661,1725 2653,1765 2652,1810 L 2435,1810 C 2437,1753 2446,1703 2462,1660 2478,1617 2499,1579 2524,1546 2550,1513 2579,1483 2611,1457 2644,1431 2676,1407 2709,1383 2742,1359 2775,1336 2807,1312 2838,1289 2867,1262 2892,1233 2916,1205 2936,1172 2952,1135 2967,1099 2975,1056 2975,1008 2975,959 2966,915 2949,877 2931,839 2907,807 2875,781 2843,755 2805,736 2759,722 2714,709 2664,702 2609,702 2493,702 2401,731 2333,787 2266,844 2226,921 2214,1020 L 1986,1020 C 1995,950 2014,883 2041,821 2069,758 2108,703 2158,656 2208,609 2270,572 2344,545 2418,518 2505,504 2606,504 2701,504 2784,516 2858,539 2932,562 2994,595 3045,637 3096,680 3134,732 3161,793 3187,854 3200,922 3200,998 Z M 2425,2278 L 2425,2029 2667,2029 2667,2278 2425,2278 Z"/>
      </g>
     </g>
    </g>
   </g>
  </g>
 </g>
</svg>